<svg width="20" height="20" viewBox="0 0 20 20" fill="none" xmlns="http://www.w3.org/2000/svg">
<path d="M14.9985 0.00416134L12.405 0C9.49124 0 7.60825 1.9319 7.60825 4.92203V7.19141H5.00058C4.77525 7.19141 4.59277 7.37409 4.59277 7.59943V10.8875C4.59277 11.1128 4.77545 11.2953 5.00058 11.2953H7.60825V19.5922C7.60825 19.8175 7.79072 20 8.01606 20H11.4183C11.6437 20 11.8261 19.8173 11.8261 19.5922V11.2953H14.8751C15.1004 11.2953 15.2829 11.1128 15.2829 10.8875L15.2842 7.59943C15.2842 7.49123 15.2411 7.38762 15.1647 7.31105C15.0884 7.23448 14.9843 7.19141 14.8762 7.19141H11.8261V5.26763C11.8261 4.34298 12.0465 3.87358 13.251 3.87358L14.9981 3.87295C15.2232 3.87295 15.4057 3.69027 15.4057 3.46514V0.411972C15.4057 0.187052 15.2234 0.00457747 14.9985 0.00416134Z" fill="white"/>
</svg>
