<svg width="30" height="30" viewBox="0 0 30 30" fill="none" xmlns="http://www.w3.org/2000/svg">
<g clip-path="url(#clip0)">
<path d="M14.9767 30C10.1109 30 6.15234 26.0415 6.15234 21.1757V8.82431C6.15234 3.95851 10.1109 0 14.9767 0C19.8425 0 23.801 3.95851 23.801 8.82431V21.1757C23.801 26.0415 19.8425 30 14.9767 30ZM22.001 8.82431C22.001 4.95117 18.8498 1.79993 14.9767 1.79993C11.1035 1.79993 7.95227 4.95117 7.95227 8.82431V21.1757C7.95227 25.0488 11.1035 28.2001 14.9767 28.2001C18.8498 28.2001 22.001 25.0488 22.001 21.1757V8.82431Z" fill="white"/>
<path d="M14.9771 24.0322C14.48 24.0322 14.0771 23.6294 14.0771 23.1323V18.99C14.0771 18.4931 14.48 18.09 14.9771 18.09C15.474 18.09 15.8771 18.4931 15.8771 18.99V23.1323C15.8771 23.6294 15.4742 24.0322 14.9771 24.0322Z" fill="white"/>
</g>
<defs>
<clipPath id="clip0">
<rect width="30" height="30" fill="white" transform="matrix(1 0 0 -1 0 30)"/>
</clipPath>
</defs>
</svg>
