<svg width="61" height="60" fill="none" xmlns="http://www.w3.org/2000/svg"><path opacity=".1" d="M60.5 30c0 16.285-13.424 29.5-30 29.5S.5 46.285.5 30 13.924.5 30.5.5s30 13.215 30 29.5z" stroke="#fff"/><path d="M35.998 21.004L33.406 21c-2.914 0-4.797 1.932-4.797 4.922v2.27h-2.607a.408.408 0 00-.408.407v3.288c0 .226.183.408.408.408h2.607v8.297c0 .226.183.408.408.408h3.402a.408.408 0 00.408-.408v-8.297h3.05a.408.408 0 00.407-.408l.001-3.288a.408.408 0 00-.408-.408h-3.05v-1.923c0-.925.22-1.394 1.425-1.394l1.747-.001a.408.408 0 00.408-.408v-3.053a.408.408 0 00-.407-.408z" fill="#fff"/></svg>