<svg width="60" height="60" fill="none" xmlns="http://www.w3.org/2000/svg"><circle cx="30" cy="30" r="29.5" fill="#fff" stroke="#fff"/><path d="M34.48 20h-8.96A5.525 5.525 0 0020 25.52v8.96A5.525 5.525 0 0025.52 40h8.96A5.526 5.526 0 0040 34.48v-8.96A5.525 5.525 0 0034.48 20zm3.745 14.48a3.75 3.75 0 01-3.744 3.745h-8.962a3.749 3.749 0 01-3.744-3.744v-8.962a3.749 3.749 0 013.744-3.744h8.962a3.75 3.75 0 013.744 3.744v8.962z" fill="#0F0F0F"/><path d="M30 24.847A5.16 5.16 0 0024.847 30 5.16 5.16 0 0030 35.153 5.16 5.16 0 0035.154 30 5.16 5.16 0 0030 24.847zm0 8.532A3.383 3.383 0 0126.621 30a3.383 3.383 0 013.38-3.379A3.383 3.383 0 0133.378 30 3.383 3.383 0 0130 33.379zm5.37-10.035a1.306 1.306 0 00-1.302 1.301 1.305 1.305 0 001.302 1.301c.343 0 .678-.14.92-.38a1.307 1.307 0 000-1.84 1.307 1.307 0 00-.92-.382z" fill="#0F0F0F"/></svg>