<svg width="30" height="30" fill="none" xmlns="http://www.w3.org/2000/svg"><g clip-path="url(#clip0)" fill="#fff"><path d="M14.977 30c-4.866 0-8.825-3.959-8.825-8.824V8.824C6.152 3.96 10.111 0 14.977 0S23.8 3.959 23.8 8.824v12.352c0 4.866-3.958 8.824-8.824 8.824zM22 8.824A7.032 7.032 0 0014.977 1.8a7.032 7.032 0 00-7.025 7.024v12.352a7.033 7.033 0 007.025 7.024A7.032 7.032 0 0022 21.176V8.824z"/><path d="M14.977 24.032a.9.9 0 01-.9-.9V18.99a.9.9 0 011.8 0v4.142a.9.9 0 01-.9.9z"/></g><defs><clipPath id="clip0"><path fill="#fff" transform="matrix(1 0 0 -1 0 30)" d="M0 0h30v30H0z"/></clipPath></defs></svg>